HIERARCHY
ROOT hip
{
	OFFSET 0.000000 0.000000 0.000000 
	CHANNELS 6 Xposition Yposition Zposition Xrotation Zrotation Yrotation
	JOINT abdomen
	{
		OFFSET 0.000000 3.402643 0.000000 
		CHANNELS 3 Xrotation Zrotation Yrotation
		JOINT chest
		{
			OFFSET 0.000000 8.438565 -0.680529 
			CHANNELS 3 Xrotation Zrotation Yrotation
			JOINT neck
			{
				OFFSET 0.000000 10.207942 -0.272212 
				CHANNELS 3 Xrotation Zrotation Yrotation
				JOINT head
				{
					OFFSET 0.000000 3.130431 0.000000 
					CHANNELS 3 Xrotation Zrotation Yrotation
					End Site
					{
						OFFSET 0.000000 3.130435 0.000000 
					}
				}
			}
			JOINT lCollar
			{
				OFFSET 3.470700 6.669187 -0.816635 
				CHANNELS 3 Yrotation Zrotation Xrotation
				JOINT lShldr
				{
					OFFSET 3.198488 0.000000 0.000000 
					CHANNELS 3 Zrotation Yrotation Xrotation
					JOINT lForeArm
					{
						OFFSET 10.139888 0.000000 0.000000 
						CHANNELS 3 Yrotation Zrotation Xrotation
						JOINT lHand
						{
							OFFSET 8.370511 0.000000 0.000000 
							CHANNELS 3 Zrotation Yrotation Xrotation
							End Site
							{
								OFFSET 4.083176 0.000000 0.000000 
							}
						}
					}
				}
			}
			JOINT rCollar
			{
				OFFSET -3.470700 6.669187 -0.816635 
				CHANNELS 3 Yrotation Zrotation Xrotation
				JOINT rShldr
				{
					OFFSET -3.198488 0.000000 0.000000 
					CHANNELS 3 Zrotation Yrotation Xrotation
					JOINT rForeArm
					{
						OFFSET -10.139888 0.000000 0.000000 
						CHANNELS 3 Yrotation Zrotation Xrotation
						JOINT rHand
						{
							OFFSET -8.370511 0.000000 0.000000 
							CHANNELS 3 Zrotation Yrotation Xrotation
							End Site
							{
								OFFSET -4.083176 0.000000 0.000000 
							}
						}
					}
				}
			}
		}
	}
	JOINT lThigh
	{
		OFFSET 5.308129 -1.633274 1.361059 
		CHANNELS 3 Xrotation Zrotation Yrotation
		JOINT lShin
		{
			OFFSET -2.041588 -20.007561 0.000000 
			CHANNELS 3 Xrotation Zrotation Yrotation
			JOINT lFoot
			{
				OFFSET 0.000000 -19.190928 -1.224953 
				CHANNELS 3 Xrotation Yrotation Zrotation
				End Site
				{
					OFFSET 0.000000 -2.449906 4.627600 
				}
			}
		}
	}
	JOINT rThigh
	{
		OFFSET -5.308129 -1.633274 1.361059 
		CHANNELS 3 Xrotation Zrotation Yrotation
		JOINT rShin
		{
			OFFSET 2.041588 -20.007561 0.000000 
			CHANNELS 3 Xrotation Zrotation Yrotation
			JOINT rFoot
			{
				OFFSET 0.000000 -19.190928 -1.224953 
				CHANNELS 3 Xrotation Yrotation Zrotation
				End Site
				{
					OFFSET 0.000000 -2.449906 4.627600 
				}
			}
		}
	}
}
MOTION
Frames: 6
Frame Time: 0.016667
0.167899 53.361126 1.444222 -11.005607 0.585192 2.890873 24.015158 1.075204 -1.047609 4.291652 1.659276 -2.803366 1.323001 5.754207 -0.088836 6.225255 -4.232532 10.663804 -17.608585 -13.226762 -0.693192 -60.305599 16.568415 -27.560156 -27.186699 -5.000000 26.740021 -15.404851 -3.190054 11.176504 16.422285 16.178772 -0.867418 57.296879 -8.474042 -18.557953 23.233498 5.000000 17.066151 12.264319 -24.250069 5.191280 17.381245 14.002120 -1.423961 6.726453 -5.173023 -0.807009 -11.223768 8.771224 -4.981406 23.581158 -7.109084 -6.998988 -0.019424 2.246889 0.026984 -6.430960 -19.607683 7.406642 
0.169915 53.361126 1.440846 -10.997983 0.555965 2.822417 24.024042 1.098016 -1.080771 4.443252 1.747061 -2.891517 1.084025 5.631061 -0.119366 5.954051 -4.272689 10.537210 -17.413031 -13.207257 -0.692184 -60.308765 16.398952 -27.507078 -27.180864 -5.000000 26.715363 -15.337395 -3.122094 11.402896 16.437428 16.074265 -0.852867 57.264751 -8.257994 -18.403568 23.227036 5.000000 16.934023 12.231030 -24.245140 5.232033 17.409422 14.001077 -1.342507 6.714312 -5.172181 -0.825672 -11.268264 8.808460 -4.949955 23.551012 -7.128152 -6.914647 -0.019018 2.276362 0.036224 -6.447489 -19.631599 7.359982 
0.172221 53.363346 1.437414 -10.988506 0.565757 2.744296 24.013277 1.067607 -1.166852 4.662636 1.873910 -2.959856 0.746577 5.525765 -0.163384 5.639410 -4.320146 10.576889 -17.129705 -13.197507 -0.691680 -60.285667 16.131304 -27.408884 -27.134659 -5.000000 26.688175 -15.198819 -3.119421 11.788737 16.406176 15.947495 -0.843614 57.214836 -7.943251 -18.185808 23.218117 5.000000 16.774406 12.173075 -24.231070 5.296124 17.407846 13.971221 -1.328835 6.690466 -5.171107 -0.824033 -11.171189 8.822822 -5.101268 23.507586 -7.156843 -6.833438 -0.019386 2.275644 -0.002837 -6.464849 -19.624876 7.359466 
0.174526 53.365570 1.434001 -10.978960 0.575544 2.675941 24.002359 1.046351 -1.249345 4.891315 2.000742 -3.048047 0.409308 5.420465 -0.207386 5.324703 -4.367587 10.616570 -16.846384 -13.187753 -0.691176 -60.265026 15.868505 -27.318970 -27.083904 -5.000000 26.660049 -15.050861 -3.123372 12.164678 16.365175 15.820724 -0.837062 57.174862 -7.617208 -17.974989 23.196589 5.000000 16.616562 12.110868 -24.218966 5.368909 17.426939 13.931458 -1.296591 6.699394 -5.175553 -0.825034 -11.120015 8.924524 -5.173263 23.475967 -7.217266 -6.789850 0.001197 2.305016 -0.002214 -6.494817 -19.596447 7.346556 
0.172349 53.365570 1.434086 -10.980886 0.546305 2.617348 24.022024 1.092899 -1.178725 4.699050 1.922676 -3.008662 0.499794 5.473115 -0.184921 5.583891 -4.312587 10.430099 -17.150814 -13.145867 -0.698248 -60.297291 16.131630 -27.419714 -27.053913 -5.000000 26.733379 -15.154028 -3.091477 12.167583 16.443747 15.849980 -0.838574 57.174088 -7.860125 -18.030088 23.243507 5.000000 16.511677 12.133157 -24.211422 5.363503 17.456078 13.960697 -1.238583 6.685017 -5.162730 -0.803363 -11.173892 8.815617 -5.168863 23.455723 -7.206903 -6.717147 0.009757 2.294882 -0.021411 -6.485012 -19.566816 7.350871 
0.170174 53.365570 1.434166 -10.983103 0.507302 2.568518 24.041500 1.161009 -1.109964 4.506421 1.854369 -2.979378 0.589363 5.533964 -0.174455 5.842711 -4.257473 10.242903 -17.453054 -13.106810 -0.696219 -60.332058 16.399561 -27.531582 -27.012217 -5.000000 26.817595 -15.257190 -3.059582 12.170937 16.512701 15.888988 -0.840591 57.182663 -8.091873 -18.091816 23.299822 5.000000 16.407124 12.160846 -24.216217 5.360193 17.478931 13.982142 -1.173508 6.685165 -5.162838 -0.793619 -11.234056 8.776239 -5.065308 23.432577 -7.176811 -6.669230 0.019820 2.275291 -0.020100 -6.497634 -19.545296 7.338042 
